<svg width="172" height="93" viewBox="0 0 172 93" fill="none" xmlns="http://www.w3.org/2000/svg">
<rect width="104" height="93" fill="#FFFEFE"/>
<path d="M41.2374 32.7791C38.4364 32.3076 35.5329 32.3059 32.7458 32.774C29.9588 33.2421 27.361 34.1679 25.1483 35.4815C22.9356 36.7951 21.1658 38.4623 19.9722 40.3573C18.7787 42.2523 18.1926 44.3258 18.2581 46.4212C18.3237 48.5167 19.0391 50.5795 20.3506 52.4542C21.6621 54.3289 23.5353 55.9664 25.829 57.2434C28.1227 58.5204 30.7771 59.4035 33.5919 59.8261C36.4068 60.2487 39.3087 60.1997 42.0789 59.683L40.4503 55.2111C38.6036 55.5556 36.669 55.5882 34.7924 55.3065C32.9158 55.0248 31.1462 54.436 29.6171 53.5847C28.0879 52.7334 26.8391 51.6417 25.9648 50.3919C25.0905 49.1421 24.6135 47.7669 24.5698 46.3699C24.5261 44.9729 24.9169 43.5907 25.7126 42.3273C26.5083 41.064 27.6882 39.9525 29.1633 39.0768C30.6384 38.201 32.3703 37.5839 34.2283 37.2718C36.0863 36.9597 38.022 36.9608 39.8894 37.2752L41.2374 32.7791Z" fill="#FFD574"/>
<rect x="29.1797" y="23" width="4" height="46" fill="#FFD574"/>
<ellipse cx="31.5" cy="48" rx="24.5" ry="25" fill="#715C2E" fill-opacity="0.21"/>
<path d="M73.558 53.838C73.15 53.922 72.634 53.994 72.01 54.054C71.398 54.114 70.822 54.144 70.282 54.144C68.722 54.144 67.57 53.952 66.826 53.568C66.082 53.184 65.59 52.56 65.35 51.696C65.11 50.832 64.99 49.536 64.99 47.808C64.99 46.104 65.11 44.82 65.35 43.956C65.602 43.092 66.1 42.462 66.844 42.066C67.588 41.67 68.734 41.472 70.282 41.472C70.822 41.472 71.392 41.508 71.992 41.58C72.592 41.64 73.09 41.718 73.486 41.814V44.19C72.262 44.07 71.452 44.01 71.056 44.01C70.072 44.01 69.394 44.088 69.022 44.244C68.65 44.388 68.41 44.7 68.302 45.18C68.206 45.648 68.158 46.524 68.158 47.808C68.158 49.092 68.206 49.974 68.302 50.454C68.41 50.922 68.65 51.234 69.022 51.39C69.394 51.534 70.072 51.606 71.056 51.606C71.944 51.606 72.778 51.546 73.558 51.426V53.838ZM82.8499 54L80.5099 50.238H80.3479L77.9899 54H74.5699L78.5479 47.772L74.6419 41.616H78.2059L80.4739 45.288H80.6179L82.9219 41.616H86.3599L82.4539 47.718L86.4139 54H82.8499ZM95.2806 54L90.9966 46.926H90.9066V54H87.9186V41.616H91.1406L95.1186 48.042H95.2086V41.616H98.2146V54H95.2806Z" fill="black" fill-opacity="0.78"/>
</svg>
